<?xml version="1.0" standalone="no"?>
<!DOCTYPE svg PUBLIC "-//W3C//DTD SVG 20010904//EN"
 "http://www.w3.org/TR/2001/REC-SVG-20010904/DTD/svg10.dtd">
<svg version="1.0" xmlns="http://www.w3.org/2000/svg"
 width="360.000000pt" height="244.000000pt" viewBox="0 0 360.000000 244.000000"
 preserveAspectRatio="xMidYMid meet">

<g transform="translate(0.000000,244.000000) scale(0.100000,-0.100000)"
fill="#6153d0" stroke="none">
<path d="M1497 2253 c-24 -60 -52 -132 -62 -161 -19 -59 -23 -189 -6 -221 15
-28 14 -36 -4 -21 -13 11 -15 5 -15 -44 0 -31 7 -73 16 -94 10 -24 11 -33 3
-24 -22 21 -29 13 -16 -15 6 -16 30 -57 52 -93 54 -85 104 -199 156 -349 58
-171 59 -171 174 -171 52 0 104 4 118 9 19 7 33 34 71 138 76 202 133 333 176
403 22 36 40 74 40 84 0 19 -1 19 -20 1 -20 -18 -20 -18 -5 18 8 20 15 62 15
93 0 48 -2 55 -14 45 -12 -10 -12 -5 1 36 29 93 2 213 -85 388 l-44 89 -15
-29 c-49 -98 -141 -254 -166 -282 -23 -26 -37 -33 -65 -33 -51 0 -102 58 -186
213 -37 70 -69 127 -71 127 -2 0 -23 -48 -48 -107z m528 -135 c0 -68 3 -143 7
-168 l7 -45 -16 35 c-17 39 -22 173 -10 253 5 26 9 47 10 47 1 0 2 -55 2 -122z
m-436 -38 c1 -66 -13 -135 -28 -145 -5 -2 -5 12 0 33 5 20 9 82 10 137 2 110
16 90 18 -25z m125 -335 c9 -14 19 -40 23 -58 6 -30 5 -31 -12 -17 -18 15 -45
69 -45 90 0 18 17 11 34 -15z m211 -2 c-9 -38 -46 -86 -57 -75 -17 17 29 102
55 102 5 0 6 -12 2 -27z m-201 -190 c4 -31 5 -58 2 -60 -2 -2 -14 16 -27 41
-12 25 -48 76 -78 113 l-56 67 76 -52 76 -53 7 -56z m268 101 c-28 -31 -64
-81 -81 -112 l-30 -57 -1 57 0 57 77 55 c43 31 79 56 81 56 2 0 -19 -25 -46
-56z"/>
<path d="M861 1626 c-25 -25 -68 -58 -97 -73 -29 -15 -49 -30 -44 -33 6 -3
-16 -11 -48 -18 -73 -16 -130 -48 -161 -92 -13 -19 -21 -27 -18 -17 11 31 -8
18 -91 -58 -87 -82 -96 -98 -112 -213 -12 -84 -30 -125 -65 -148 -14 -9 -28
-27 -31 -39 -3 -13 -14 -25 -25 -28 -15 -4 -41 -46 -40 -67 0 -3 -10 -10 -21
-16 -11 -6 -35 -35 -54 -65 -32 -53 -33 -55 -16 -83 20 -34 110 -91 99 -63 -3
9 -2 17 3 17 6 0 10 -7 10 -15 0 -9 11 -21 25 -27 22 -10 39 -4 143 45 262
125 486 138 600 33 58 -52 78 -138 42 -183 -24 -31 -26 -47 -4 -39 9 3 27 9
41 12 23 6 24 5 14 -14 -16 -31 -13 -37 8 -18 18 16 19 16 30 -15 6 -18 27
-53 48 -78 55 -70 56 -70 48 -26 l-7 40 39 -36 c51 -48 116 -86 121 -71 2 7
18 2 44 -15 66 -41 222 -102 327 -127 53 -13 97 -23 98 -22 1 1 -32 37 -73 80
-140 145 -234 288 -307 466 -22 52 -45 98 -53 103 -7 4 -23 39 -36 77 -20 65
-21 76 -10 148 7 42 15 89 18 105 6 24 4 27 -20 27 -14 0 -26 3 -26 6 0 4 18
34 40 67 l41 60 -28 29 -27 28 32 0 c17 0 33 4 36 9 8 12 -103 91 -136 98 -31
6 -28 23 3 23 31 0 12 18 -26 26 -30 5 -33 9 -25 24 10 18 14 60 6 60 -2 0
-21 -7 -42 -16 -22 -9 -75 -22 -119 -28 l-80 -12 -1 -39 c0 -22 -7 -51 -14
-65 -8 -14 -15 -27 -15 -30 -2 -14 -23 -38 -42 -49 -35 -18 -41 -13 -8 9 17
11 30 23 30 27 1 5 11 27 24 51 12 24 20 49 17 55 -3 9 -5 9 -5 0 -1 -7 -5
-13 -10 -13 -5 0 -3 13 5 29 29 59 30 185 1 225 -11 15 -17 12 -56 -28z m-461
-405 c0 -29 -42 -91 -61 -91 -18 0 -8 54 17 87 31 41 44 42 44 4z m83 -48
c-14 -43 -27 -79 -28 -80 -1 -2 -24 -5 -51 -9 l-49 -5 28 21 c15 12 48 51 73
86 25 35 47 64 49 64 2 0 -8 -35 -22 -77z m427 -22 c0 -10 -97 -7 -107 3 -4 3
19 6 50 6 32 0 57 -4 57 -9z m-3 -123 c-3 -8 -6 -5 -6 6 -1 11 2 17 5 13 3 -3
4 -12 1 -19z m-26 -57 c-12 -17 -32 -37 -43 -46 -20 -14 -21 -16 -5 -33 24
-26 21 -36 -3 -12 -11 11 -25 20 -32 20 -7 0 6 13 28 29 22 17 46 41 54 55 7
14 15 24 18 22 2 -3 -6 -19 -17 -35z m-69 -100 c-11 -7 -11 -9 2 -14 8 -3 20
-16 26 -28 11 -19 7 -18 -24 7 -42 34 -45 44 -13 44 16 0 18 -3 9 -9z m-355
-61 c1 -17 -1 -30 -5 -30 -4 0 -8 14 -9 30 -1 17 1 30 5 30 4 0 8 -14 9 -30z
m-66 -27 c-8 -15 -10 -15 -11 -2 0 17 10 32 18 25 2 -3 -1 -13 -7 -23z m-76
-33 c-3 -5 -11 -10 -16 -10 -6 0 -7 5 -4 10 3 6 11 10 16 10 6 0 7 -4 4 -10z
m-58 -52 c-3 -8 -6 -5 -6 6 -1 11 2 17 5 13 3 -3 4 -12 1 -19z m53 12 c0 -5
-2 -10 -4 -10 -3 0 -8 5 -11 10 -3 6 -1 10 4 10 6 0 11 -4 11 -10z m-70 -31
c0 -16 -5 -20 -20 -16 -11 3 -23 1 -26 -4 -3 -5 -10 -9 -15 -9 -6 0 -4 7 5 15
8 8 22 12 30 9 11 -4 16 -1 16 10 0 9 2 16 5 16 3 0 5 -10 5 -21z"/>
<path d="M2669 1628 c-18 -45 -16 -157 5 -198 9 -18 14 -36 11 -38 -3 -3 -11
8 -17 26 -11 29 -16 31 -77 38 -37 4 -90 15 -120 25 -30 11 -56 19 -59 19 -5
0 2 -38 13 -62 6 -14 2 -18 -17 -18 -13 0 -33 -7 -44 -15 -18 -14 -18 -14 8
-15 15 0 30 -4 33 -10 3 -6 -4 -10 -17 -10 -23 0 -83 -34 -137 -78 l-24 -19
27 -7 c15 -4 31 -4 36 -1 17 11 11 -8 -11 -31 -25 -27 -21 -47 27 -109 19 -25
34 -47 34 -50 0 -3 -14 -5 -31 -5 -24 0 -29 -3 -25 -17 32 -105 34 -202 5
-278 -11 -30 -26 -58 -33 -62 -7 -5 -23 -35 -36 -68 -73 -188 -215 -403 -348
-527 -58 -55 -54 -57 62 -28 94 24 240 81 308 121 52 31 63 35 53 19 -18 -30
64 18 119 69 l38 36 -4 -32 c-3 -18 -2 -33 1 -33 11 1 92 114 97 137 7 27 19
29 34 6 9 -14 10 -11 4 15 -6 32 -5 33 14 23 12 -6 30 -11 41 -11 20 0 19 1
-5 37 -30 44 -28 83 6 139 51 81 156 121 295 110 111 -8 210 -38 346 -103 99
-47 120 -53 138 -44 11 7 21 18 21 26 0 8 5 15 11 15 5 0 7 -4 4 -10 -10 -17
16 -11 52 11 18 11 40 34 49 50 14 28 13 32 -18 84 -18 30 -40 57 -48 60 -8 3
-23 23 -33 45 -9 22 -24 40 -32 40 -9 0 -21 13 -26 30 -6 16 -19 32 -30 35
-30 10 -55 71 -68 165 -9 58 -20 97 -37 122 -26 41 -157 154 -162 140 -1 -5
-22 10 -45 34 -40 40 -118 74 -169 74 -11 0 -17 4 -13 9 3 5 -16 20 -41 33
-26 13 -70 44 -98 71 -27 26 -51 47 -52 47 -1 0 -8 -14 -15 -32z m41 -330 c0
-4 15 -17 33 -28 38 -23 29 -27 -13 -5 -18 9 -37 32 -49 59 -33 75 -34 94 -2
37 17 -30 31 -58 31 -63z m501 -202 l34 -29 -50 7 c-27 4 -53 11 -56 14 -7 8
-49 131 -49 145 0 5 19 -17 43 -50 24 -32 59 -71 78 -87z m14 128 c24 -25 47
-74 41 -90 -13 -35 -76 36 -76 86 0 24 13 26 35 4z m-419 -71 c-10 -10 -126
-20 -126 -11 0 4 26 9 58 11 31 2 61 4 66 5 5 1 6 -1 2 -5z m-106 -117 c0 -3
-4 -8 -10 -11 -5 -3 -10 -1 -10 4 0 6 5 11 10 11 6 0 10 -2 10 -4z m66 -114
c27 -21 34 -31 22 -32 -10 0 -22 -9 -28 -21 -7 -11 -14 -18 -18 -15 -3 3 4 17
16 29 l22 24 -22 12 c-23 12 -68 69 -68 87 0 5 8 -5 19 -21 10 -17 36 -45 57
-63z m54 -55 c0 -2 -19 -19 -42 -37 -41 -34 -44 -24 -4 17 18 18 46 31 46 20z
m327 -79 c-2 -13 -4 -5 -4 17 -1 22 1 32 4 23 2 -10 2 -28 0 -40z m63 2 c0 -5
-2 -10 -4 -10 -3 0 -8 5 -11 10 -3 6 -1 10 4 10 6 0 11 -4 11 -10z m21 -53
c-10 -9 -11 -8 -5 6 3 10 9 15 12 12 3 -3 0 -11 -7 -18z m69 3 c0 -5 -7 -7
-15 -4 -8 4 -15 8 -15 10 0 2 7 4 15 4 8 0 15 -4 15 -10z m40 -14 c0 -2 -7 -7
-16 -10 -8 -3 -12 -2 -9 4 6 10 25 14 25 6z m-40 -20 c0 -3 -4 -8 -10 -11 -5
-3 -10 -1 -10 4 0 6 5 11 10 11 6 0 10 -2 10 -4z m117 -52 c12 -12 12 -14 -1
-14 -9 0 -16 5 -16 10 0 6 -11 8 -25 4 -14 -3 -25 -2 -25 2 0 15 52 13 67 -2z
m6 -51 c-7 -2 -19 -2 -25 0 -7 3 -2 5 12 5 14 0 19 -2 13 -5z"/>
<path d="M1465 1448 c-20 -86 -55 -164 -118 -270 -44 -74 -45 -78 -23 -78 l22
0 -17 -67 c-21 -81 -23 -137 -7 -215 12 -59 27 -77 29 -35 1 12 7 -6 14 -40 7
-35 20 -84 30 -110 20 -53 90 -169 109 -181 6 -4 27 -32 46 -62 63 -101 228
-300 249 -300 12 0 166 178 204 235 19 28 45 71 59 98 14 26 37 56 51 67 39
31 108 173 122 254 7 39 14 60 15 46 2 -23 3 -23 18 10 10 23 16 63 16 115 -1
72 -7 103 -39 178 -6 16 -4 17 19 11 l27 -6 -40 64 c-36 57 -121 284 -121 323
0 7 -4 16 -8 19 -7 4 -56 -117 -164 -407 -15 -39 -39 -49 -133 -55 -100 -6
-149 8 -164 46 -5 15 -33 88 -60 163 -51 138 -107 269 -114 269 -2 0 -12 -33
-22 -72z"/>
</g>
</svg>
