<?xml version="1.0" standalone="no"?>
<!DOCTYPE svg PUBLIC "-//W3C//DTD SVG 20010904//EN"
 "http://www.w3.org/TR/2001/REC-SVG-20010904/DTD/svg10.dtd">
<svg version="1.0" xmlns="http://www.w3.org/2000/svg"
 width="512.000000pt" height="512.000000pt" viewBox="0 0 512.000000 512.000000"
 preserveAspectRatio="xMidYMid meet">

<g transform="translate(0.000000,512.000000) scale(0.100000,-0.100000)"
fill="#2b7480" stroke="none">
<path d="M2375 5034 c-16 -2 -73 -9 -125 -15 -855 -98 -1624 -676 -1969 -1480
-88 -206 -152 -444 -182 -674 -13 -93 -16 -283 -12 -585 1 -69 1 -161 0 -205
-1 -68 3 -89 27 -140 15 -33 39 -76 55 -95 15 -19 40 -71 56 -115 147 -410
413 -791 748 -1071 l47 -40 -11 -58 c-20 -108 19 -243 96 -333 98 -114 309
-181 380 -121 43 38 36 69 -49 217 l-76 133 21 34 c18 30 26 34 62 34 l42 0
76 -133 c47 -82 85 -136 100 -144 33 -16 245 -77 356 -102 320 -74 665 -79
1009 -15 796 146 1490 703 1813 1455 198 462 250 974 150 1472 -31 159 -99
375 -155 496 l-34 74 45 48 c52 55 56 82 25 151 l-20 45 28 68 c26 64 30 69
77 87 81 31 85 40 85 187 0 148 -4 158 -83 190 -52 21 -55 24 -80 90 l-27 69
20 43 c35 79 31 92 -73 196 -104 104 -117 108 -196 73 l-43 -20 -69 27 c-66
25 -69 28 -90 80 -32 79 -42 83 -190 83 -147 0 -156 -4 -187 -85 -18 -47 -23
-51 -87 -77 l-68 -28 -45 20 c-69 31 -96 27 -151 -25 l-48 -45 -78 36 c-194
89 -514 171 -755 193 -107 10 -346 13 -415 5z m555 -184 c193 -32 394 -90 537
-154 52 -24 60 -32 81 -79 27 -64 27 -59 -2 -130 -28 -69 -27 -69 -89 -91 -67
-25 -77 -49 -77 -189 0 -134 6 -145 90 -186 48 -24 54 -31 77 -89 l25 -63 -22
-54 c-13 -31 -20 -65 -16 -78 8 -32 188 -207 213 -207 11 0 43 9 71 21 l51 21
63 -25 c58 -23 65 -29 89 -77 41 -84 52 -90 186 -90 140 0 164 10 189 77 22
60 26 64 97 92 l58 23 59 -23 c56 -22 61 -27 86 -82 65 -145 121 -343 156
-543 29 -174 32 -521 5 -693 -102 -648 -435 -1189 -965 -1568 -397 -283 -915
-439 -1402 -420 -152 6 -330 25 -330 36 1 3 91 58 201 121 110 63 205 122 210
132 5 9 9 28 9 42 0 34 -480 865 -515 891 -14 11 -49 22 -77 25 l-51 5 -208
360 c-115 198 -209 363 -209 368 0 4 214 7 475 7 l475 0 0 -329 c0 -324 0
-328 23 -361 12 -18 35 -43 50 -54 28 -21 36 -21 700 -24 l672 -2 45 22 c33
17 51 35 68 68 l22 45 -2 796 -3 796 -29 37 c-43 57 -75 66 -231 66 l-135 0 0
24 c0 62 -38 86 -135 86 -62 0 -68 2 -102 36 -46 46 -89 64 -155 64 -63 0
-122 -25 -162 -69 -28 -29 -34 -31 -104 -31 -68 0 -76 -2 -103 -29 -17 -17
-29 -40 -29 -55 l0 -26 -137 0 c-127 0 -139 -2 -178 -25 -58 -33 -75 -73 -75
-174 0 -45 -1 -81 -3 -81 -2 0 -34 16 -73 35 -38 19 -75 35 -81 35 -20 0 -17
5 35 59 58 61 100 135 123 216 l16 60 53 5 c60 7 90 33 90 82 0 31 -38 78 -65
78 -12 0 -15 12 -15 53 -1 183 -124 389 -286 474 -35 19 -65 43 -72 57 -18 39
-83 76 -155 89 -55 9 -75 8 -129 -7 -68 -19 -123 -54 -133 -86 -3 -11 -33 -34
-67 -52 -71 -38 -164 -126 -204 -193 -44 -76 -74 -172 -81 -257 -5 -72 -8 -79
-30 -84 -54 -14 -70 -88 -28 -129 19 -20 34 -25 72 -25 l48 0 13 -52 c18 -79
67 -169 124 -226 28 -29 49 -54 47 -55 -2 -2 -29 -14 -59 -26 -94 -39 -214
-126 -299 -218 l-81 -86 -51 48 c-62 58 -63 57 -217 -31 -115 -67 -131 -86
-123 -138 3 -20 93 -316 106 -349 4 -9 42 -42 84 -71 l77 -55 244 -423 c134
-233 245 -426 247 -429 1 -4 -7 -28 -18 -54 -15 -34 -19 -57 -14 -83 4 -20
114 -222 246 -450 132 -228 237 -417 234 -420 -5 -5 -224 53 -232 61 -1 2 3
23 9 47 17 74 4 182 -31 255 -59 126 -168 209 -311 237 l-64 13 -280 484 -279
483 21 62 c30 85 36 152 22 222 -36 177 -166 304 -343 334 -76 14 -108 9 -137
-20 -36 -36 -26 -74 55 -212 l75 -129 -20 -40 c-19 -35 -24 -39 -59 -39 l-39
0 -77 133 c-42 72 -83 137 -92 144 -21 16 -29 259 -14 423 43 453 195 843 475
1215 77 103 317 344 422 422 351 265 751 425 1179 472 142 15 459 6 605 -19z
m1345 -15 c21 -55 38 -70 95 -85 24 -7 71 -25 104 -42 61 -31 82 -32 144 -7
31 13 34 12 64 -19 31 -30 32 -33 19 -64 -25 -62 -24 -83 7 -144 17 -33 35
-80 42 -104 15 -57 30 -74 85 -95 45 -16 45 -17 45 -64 0 -47 -1 -48 -40 -61
-51 -17 -73 -43 -94 -110 -10 -30 -28 -74 -42 -97 -29 -50 -30 -82 -5 -132
l20 -38 -34 -33 -35 -34 -35 17 c-52 25 -85 21 -166 -18 -41 -19 -81 -35 -90
-35 -28 0 -67 -39 -85 -85 -16 -44 -18 -45 -60 -45 -44 0 -45 1 -68 53 -18 42
-30 56 -57 66 -19 7 -65 26 -104 43 -93 40 -117 44 -171 23 l-46 -17 -31 30
-30 30 17 41 c22 57 20 79 -13 152 -15 35 -36 86 -46 113 -16 43 -23 51 -71
72 -53 24 -54 24 -54 68 0 42 1 44 45 60 46 18 85 57 85 85 0 9 16 49 35 90
39 81 43 114 18 166 l-17 35 34 35 33 34 38 -20 c50 -25 82 -24 132 5 23 13
67 32 97 41 67 21 93 44 110 95 13 39 14 40 61 40 47 0 48 0 64 -45z m-2255
-741 l32 -7 -7 -71 c-11 -115 -11 -116 -60 -116 -48 0 -48 0 -61 124 -6 62 -6
64 17 69 40 7 45 7 79 1z m-235 -238 c5 -53 12 -74 30 -92 23 -23 30 -24 170
-24 140 0 147 1 170 24 17 17 25 40 30 82 4 33 10 72 14 88 l7 28 52 -47 c72
-65 123 -169 130 -265 l5 -70 -408 0 -408 0 6 72 c8 98 58 199 129 263 60 54
61 53 73 -59z m535 -449 c0 -31 -63 -138 -102 -172 -68 -62 -140 -90 -233 -89
-94 0 -166 28 -233 89 -39 34 -102 141 -102 172 0 11 62 13 335 13 273 0 335
-2 335 -13z m992 -107 c25 -50 44 -60 115 -60 l63 0 0 -30 0 -30 -232 2 -233
3 -3 28 -3 27 67 0 c56 0 72 4 91 22 13 12 23 27 23 34 0 24 32 45 64 42 24
-2 35 -11 48 -38z m-452 -194 c0 -14 11 -38 24 -53 l24 -28 319 -3 c175 -2
333 0 351 3 41 8 72 41 72 77 l0 28 120 0 120 0 0 -755 0 -755 -630 0 -630 0
0 755 0 755 115 0 115 0 0 -24z m-815 -306 l55 -172 -29 -37 c-16 -20 -42 -49
-59 -64 l-29 -28 -57 63 c-31 35 -54 68 -52 73 2 6 27 85 56 177 30 93 55 166
57 165 2 -2 28 -81 58 -177z m-259 88 c-13 -40 -38 -119 -55 -176 -18 -57 -30
-113 -27 -125 3 -12 39 -60 80 -107 l75 -85 -206 -3 c-113 -1 -208 0 -211 3
-3 2 -8 35 -11 72 -8 75 -16 96 -55 132 -14 14 -26 29 -26 34 0 5 22 37 49 71
49 61 129 130 205 176 40 24 173 79 193 80 8 0 4 -24 -11 -72z m499 31 c39
-16 95 -46 125 -67 l55 -37 0 -210 0 -210 -172 -3 c-95 -1 -173 1 -173 5 0 5
32 44 70 87 78 88 88 111 71 164 -6 21 -31 99 -55 175 l-45 139 27 -7 c15 -4
59 -20 97 -36z m-1102 -349 l85 -89 7 -78 c3 -43 12 -92 19 -109 8 -16 123
-219 256 -450 133 -230 244 -421 245 -424 2 -3 -9 -13 -25 -22 l-29 -16 -256
444 -257 444 -71 50 -72 51 -37 121 c-21 67 -36 123 -35 124 9 8 73 44 78 44
4 0 45 -40 92 -90z m-447 -408 c20 -68 12 -124 -27 -198 -16 -31 -29 -65 -29
-76 0 -21 623 -1107 645 -1124 8 -6 48 -14 89 -17 116 -9 192 -60 236 -160 32
-72 18 -67 -24 7 -20 36 -45 70 -56 76 -10 5 -70 10 -133 10 l-115 0 -25 -30
c-38 -44 -107 -174 -107 -200 0 -12 17 -52 37 -88 34 -63 35 -66 10 -43 -83
75 -95 222 -25 323 10 14 18 38 18 52 0 28 -620 1111 -649 1133 -9 7 -41 13
-72 13 -124 0 -219 66 -257 179 -19 55 -7 47 31 -22 20 -35 44 -70 53 -78 10
-8 51 -15 113 -17 139 -6 154 3 219 117 29 50 52 103 52 117 0 14 -16 56 -36
92 l-36 67 37 -40 c21 -23 42 -60 51 -93z m-240 -496 c17 -17 436 -748 431
-752 -6 -6 -174 187 -241 279 -82 111 -165 252 -226 382 -28 58 -50 108 -50
110 0 8 76 -8 86 -19z m1684 -693 c113 -196 205 -361 205 -366 0 -8 -236 -151
-240 -145 -1 2 -95 165 -209 362 -128 223 -203 363 -197 369 9 9 222 135 231
136 3 0 97 -160 210 -356z"/>
<path d="M4072 4622 c-299 -107 -388 -477 -171 -707 189 -200 515 -173 667 55
58 86 75 151 70 264 -3 76 -9 102 -35 159 -42 89 -121 168 -210 210 -60 28
-80 32 -168 34 -78 3 -112 -1 -153 -15z m232 -154 c55 -16 148 -109 164 -164
32 -111 2 -229 -78 -297 -170 -145 -431 -38 -448 185 -15 194 167 333 362 276z"/>
<path d="M2811 2904 c-28 -35 -26 -67 3 -101 l24 -28 389 -3 c213 -2 403 0
421 3 18 3 42 15 53 26 26 26 25 83 -1 109 -19 19 -33 20 -444 20 l-425 0 -20
-26z"/>
<path d="M2834 2658 c-47 -22 -56 -86 -19 -123 l24 -25 414 0 c404 0 415 1
441 21 35 28 36 80 1 114 l-24 25 -408 -1 c-259 0 -416 -4 -429 -11z"/>
<path d="M2815 2375 c-34 -33 -32 -70 5 -106 l29 -30 416 3 417 3 19 24 c26
32 25 82 -4 109 -23 22 -26 22 -441 22 l-417 0 -24 -25z"/>
<path d="M2844 2130 c-28 -11 -54 -48 -54 -78 0 -12 11 -34 25 -47 l24 -25
419 0 419 0 21 23 c27 29 28 77 3 108 l-19 24 -409 2 c-224 1 -418 -2 -429 -7z"/>
<path d="M2815 1845 c-39 -38 -27 -102 22 -124 16 -7 153 -11 427 -11 393 0
404 1 430 21 37 29 37 89 0 118 -26 20 -37 21 -441 21 l-414 0 -24 -25z"/>
</g>
</svg>
